<?xml version="1.0" encoding="utf-8"?>
<!-- Generator: Adobe Illustrator 16.0.0, SVG Export Plug-In . SVG Version: 6.00 Build 0)  -->
<!DOCTYPE svg PUBLIC "-//W3C//DTD SVG 1.1//EN" "http://www.w3.org/Graphics/SVG/1.1/DTD/svg11.dtd">
<svg version="1.1" id="Layer_1" xmlns="http://www.w3.org/2000/svg" xmlns:xlink="http://www.w3.org/1999/xlink" x="0px" y="0px"
	 width="481px" height="58.857px" viewBox="0 0 481 58.857" enable-background="new 0 0 481 58.857" xml:space="preserve">
<g>
	<path fill="#CFD8DC" d="M7.692,52.535c-3.638-3.398-5.456-7.541-5.456-12.432h3.578c0,3.936,1.46,7.305,4.383,10.107
		c2.921,2.803,6.44,4.203,10.554,4.203c4.472,0,8.318-1.191,11.538-3.578c3.16-2.384,4.741-5.276,4.741-8.675
		c0-2.921-1.402-5.366-4.204-7.334c-2.743-1.968-6.439-3.16-11.09-3.578c-5.666-0.477-10.196-2.086-13.595-4.83
		c-3.399-2.742-5.098-6.111-5.098-10.106c0-3.936,1.729-7.304,5.188-10.107c3.458-2.802,7.632-4.204,12.522-4.204
		c5.246,0,9.749,1.461,13.505,4.382c3.696,2.922,5.545,6.44,5.545,10.554h-3.578c0-3.16-1.521-5.873-4.562-8.139
		C28.68,6.533,25.043,5.4,20.75,5.4c-3.877,0-7.215,1.073-10.018,3.22c-2.743,2.088-4.114,4.651-4.114,7.692
		c0,2.982,1.431,5.486,4.293,7.513c2.921,2.028,6.767,3.251,11.538,3.667c5.485,0.478,9.897,2.057,13.237,4.741
		c3.278,2.683,4.919,5.992,4.919,9.928c0,4.293-1.938,7.96-5.814,11.001c-3.876,3.041-8.557,4.562-14.042,4.562
		C15.622,57.723,11.27,55.994,7.692,52.535z"/>
	<path fill="#CFD8DC" d="M44.965,56.381V3.343H50.6L70.009,51.91L89.328,3.343h5.635v53.039h-3.578V7.457L71.619,56.381H68.31
		L48.543,7.457v48.924H44.965z"/>
	<path fill="#CFD8DC" d="M106.388,49.583c-4.293-4.948-6.439-11.507-6.439-19.677c0-8.466,2.146-15.234,6.439-20.303
		c4.293-5.067,10.018-7.602,17.173-7.602s12.879,2.535,17.172,7.602c4.293,5.069,6.44,11.837,6.44,20.303
		c0,8.17-2.146,14.729-6.44,19.677c-4.293,4.95-10.017,7.424-17.172,7.424S110.682,54.534,106.388,49.583z M138.14,47.169
		c3.637-4.293,5.456-10.047,5.456-17.263c0-7.393-1.819-13.327-5.456-17.799c-3.638-4.472-8.497-6.708-14.579-6.708
		s-10.942,2.236-14.579,6.708c-3.638,4.472-5.456,10.406-5.456,17.799c0,7.215,1.818,12.97,5.456,17.263
		c3.637,4.353,8.497,6.529,14.579,6.529S134.502,51.522,138.14,47.169z"/>
	<path fill="#CFD8DC" d="M155.737,49.583c-4.293-4.948-6.439-11.507-6.439-19.677c0-8.466,2.146-15.234,6.439-20.303
		c4.293-5.067,10.018-7.602,17.173-7.602s12.879,2.535,17.172,7.602c4.293,5.069,6.44,11.837,6.44,20.303
		c0,8.17-2.146,14.729-6.44,19.677c-4.293,4.95-10.017,7.424-17.172,7.424S160.03,54.534,155.737,49.583z M187.488,47.169
		c3.637-4.293,5.456-10.047,5.456-17.263c0-7.393-1.819-13.327-5.456-17.799C183.851,7.636,178.992,5.4,172.91,5.4
		s-10.942,2.236-14.579,6.708c-3.638,4.472-5.456,10.406-5.456,17.799c0,7.215,1.818,12.97,5.456,17.263
		c3.637,4.353,8.497,6.529,14.579,6.529S183.851,51.522,187.488,47.169z"/>
	<path fill="#CFD8DC" d="M214.298,56.381V6.831h-18.156V3.343h40.069v3.488h-18.335v49.55H214.298z"/>
	<path fill="#CFD8DC" d="M238.692,56.381V3.343h3.577v23.165h32.02V3.343h3.578v53.039h-3.578V29.907h-32.02v26.475H238.692z"/>
	<path fill="#FF9800" d="M298.227,56.381V3.343h5.635L323.27,51.91l19.318-48.567h5.635v53.039h-3.576V7.457l-19.768,48.924h-3.309
		L301.803,7.457v48.924H298.227z"/>
	<path fill="#FF9800" d="M359.648,49.583c-4.293-4.948-6.439-11.507-6.439-19.677c0-8.466,2.146-15.234,6.439-20.303
		c4.293-5.067,10.018-7.602,17.174-7.602c7.154,0,12.879,2.535,17.172,7.602c4.293,5.069,6.439,11.837,6.439,20.303
		c0,8.17-2.146,14.729-6.439,19.677c-4.293,4.95-10.018,7.424-17.172,7.424C369.666,57.007,363.941,54.534,359.648,49.583z
		 M391.4,47.169c3.637-4.293,5.457-10.047,5.457-17.263c0-7.393-1.82-13.327-5.457-17.799c-3.637-4.472-8.496-6.708-14.578-6.708
		s-10.943,2.236-14.58,6.708c-3.637,4.472-5.455,10.406-5.455,17.799c0,7.215,1.818,12.97,5.455,17.263
		c3.637,4.353,8.498,6.529,14.58,6.529S387.764,51.522,391.4,47.169z"/>
	<path fill="#FF9800" d="M419.551,56.381L400.59,3.343h4.025l16.994,48.298l16.994-48.298h4.113l-19.051,53.039H419.551z"/>
	<path fill="#FF9800" d="M445.646,56.381V3.343h34.613v3.488h-31.037v20.393h28.354v3.309h-28.354v22.449h31.037v3.399H445.646z"/>
</g>
</svg>
